<svg width="128" height="38" viewBox="0 0 128 38" fill="none" xmlns="http://www.w3.org/2000/svg">
<path d="M53.3611 16.1476C52.4211 16.1476 51.6888 15.9508 51.1642 15.5573C50.6505 15.1638 50.2898 14.6337 50.0821 13.967C49.8853 13.3003 49.787 12.557 49.787 11.7372V7.04822C49.787 6.15194 49.8853 5.37044 50.0821 4.7037C50.2898 4.03696 50.6505 3.52324 51.1642 3.16255C51.6888 2.79092 52.4211 2.60511 53.3611 2.60511C54.1918 2.60511 54.8476 2.75813 55.3286 3.06418C55.8204 3.37022 56.1702 3.80743 56.3778 4.3758C56.5964 4.94416 56.7057 5.6273 56.7057 6.4252V7.47449H54.9515V6.53996C54.9515 6.04811 54.9241 5.61637 54.8695 5.24474C54.8258 4.86219 54.6946 4.56707 54.476 4.3594C54.2574 4.15173 53.8912 4.04789 53.3775 4.04789C52.8529 4.04789 52.4703 4.16266 52.2299 4.39219C51.9894 4.61079 51.8309 4.92777 51.7544 5.34311C51.6888 5.74753 51.656 6.22299 51.656 6.7695V12.0324C51.656 12.6991 51.7107 13.2292 51.82 13.6227C51.9293 14.0052 52.1096 14.2785 52.361 14.4425C52.6124 14.6064 52.9512 14.6884 53.3775 14.6884C53.8803 14.6884 54.241 14.5791 54.4596 14.3605C54.6782 14.1309 54.8148 13.8194 54.8695 13.426C54.9241 13.0325 54.9515 12.5734 54.9515 12.0488V11.065H56.7057V12.0488C56.7057 12.8576 56.6074 13.5735 56.4106 14.1965C56.2139 14.8086 55.8751 15.2895 55.3941 15.6393C54.9132 15.9781 54.2355 16.1476 53.3611 16.1476ZM58.26 16L61.08 2.71988H62.8671L65.7034 16H63.9492L63.3425 12.6554H60.6373L59.9979 16H58.26ZM60.8833 11.3274H63.0966L61.9817 5.34311L60.8833 11.3274ZM67.5617 16V2.71988H68.8241L72.595 11.5405V2.71988H74.1361V16H72.9557L69.1356 6.93345V16H67.5617ZM76.0129 16L78.8329 2.71988H80.62L83.4564 16H81.7021L81.0955 12.6554H78.3902L77.7508 16H76.0129ZM78.6362 11.3274H80.8495L79.7347 5.34311L78.6362 11.3274ZM85.3146 16V2.71988H88.2001C89.1839 2.71988 89.9599 2.8729 90.5283 3.17894C91.1076 3.47406 91.5174 3.92219 91.7579 4.52335C92.0093 5.12451 92.135 5.87322 92.135 6.7695V11.6553C92.135 12.5953 92.0093 13.3877 91.7579 14.0326C91.5174 14.6775 91.1185 15.1693 90.5611 15.5081C90.0145 15.836 89.2768 16 88.3477 16H85.3146ZM87.1672 14.672H88.2165C88.8942 14.672 89.3751 14.5408 89.6593 14.2785C89.9435 14.0162 90.1129 13.6336 90.1676 13.1308C90.2332 12.6281 90.2659 12.0214 90.2659 11.311V6.99903C90.2659 6.31043 90.2222 5.75299 90.1348 5.32672C90.0473 4.90044 89.8561 4.58893 89.5609 4.39219C89.2658 4.19545 88.8013 4.09708 88.1674 4.09708H87.1672V14.672ZM94.5696 16V2.71988H96.3895V16H94.5696ZM98.3274 16L101.147 2.71988H102.934L105.771 16H104.017L103.41 12.6554H100.705L100.065 16H98.3274ZM100.951 11.3274H103.164L102.049 5.34311L100.951 11.3274ZM107.629 16V2.71988H108.891L112.662 11.5405V2.71988H114.203V16H113.023L109.203 6.93345V16H107.629ZM53.5087 34.1967C52.678 34.1967 51.9839 34.0492 51.4265 33.7541C50.8691 33.459 50.4482 33.0054 50.1641 32.3933C49.8799 31.7703 49.7214 30.9669 49.6886 29.9832L52.1971 29.6061C52.208 30.1745 52.2572 30.6335 52.3446 30.9833C52.443 31.333 52.5742 31.5844 52.7381 31.7375C52.913 31.8905 53.1207 31.967 53.3611 31.967C53.6672 31.967 53.8639 31.8632 53.9514 31.6555C54.0497 31.4478 54.0989 31.2292 54.0989 30.9997C54.0989 30.4532 53.9677 29.9941 53.7054 29.6225C53.4431 29.2399 53.0879 28.8574 52.6397 28.4748L51.4921 27.4747C50.9893 27.0484 50.563 26.5675 50.2132 26.0319C49.8744 25.4854 49.705 24.8132 49.705 24.0153C49.705 22.8895 50.0384 22.0315 50.7051 21.4413C51.3718 20.8401 52.279 20.5395 53.4267 20.5395C54.1372 20.5395 54.7055 20.6598 55.1318 20.9002C55.569 21.1407 55.8969 21.4577 56.1155 21.8511C56.3451 22.2337 56.4981 22.6436 56.5746 23.0808C56.662 23.5071 56.7112 23.9169 56.7221 24.3104L54.1973 24.6219C54.1864 24.2285 54.159 23.8896 54.1153 23.6054C54.0825 23.3103 54.006 23.0863 53.8858 22.9332C53.7655 22.7693 53.5797 22.6873 53.3283 22.6873C53.0551 22.6873 52.8529 22.8021 52.7217 23.0316C52.6015 23.2611 52.5414 23.4907 52.5414 23.7202C52.5414 24.2121 52.6561 24.6165 52.8857 24.9334C53.1261 25.2395 53.4376 25.5619 53.8202 25.9008L54.9187 26.8681C55.498 27.3599 55.9844 27.9174 56.3778 28.5404C56.7823 29.1634 56.9845 29.934 56.9845 30.8521C56.9845 31.4751 56.8424 32.0435 56.5582 32.5572C56.274 33.06 55.8696 33.459 55.3449 33.7541C54.8312 34.0492 54.2191 34.1967 53.5087 34.1967ZM62.6959 34.1967C61.6794 34.1967 60.8815 34.0328 60.3022 33.7049C59.7339 33.3661 59.3349 32.8797 59.1054 32.2457C58.8759 31.6008 58.7611 30.8139 58.7611 29.8848V20.7199H61.663V30.3275C61.663 30.6007 61.6849 30.874 61.7286 31.1472C61.7723 31.4205 61.8653 31.6446 62.0073 31.8194C62.1604 31.9943 62.3899 32.0818 62.6959 32.0818C63.0129 32.0818 63.2424 31.9943 63.3845 31.8194C63.5266 31.6446 63.6141 31.4205 63.6469 31.1472C63.6906 30.874 63.7124 30.6007 63.7124 30.3275V20.7199H66.6308V29.8848C66.6308 30.8139 66.5106 31.6008 66.2701 32.2457C66.0406 32.8797 65.6416 33.3661 65.0732 33.7049C64.5049 34.0328 63.7124 34.1967 62.6959 34.1967ZM68.952 34V20.7199H73.4115C74.2094 20.7199 74.8653 20.8729 75.379 21.1789C75.8927 21.4741 76.2752 21.9113 76.5266 22.4906C76.778 23.0589 76.9037 23.753 76.9037 24.5728C76.9037 25.6002 76.7343 26.3872 76.3955 26.9337C76.0566 27.4692 75.5976 27.8409 75.0183 28.0485C74.439 28.2562 73.7886 28.36 73.0672 28.36H71.8868V34H68.952ZM71.8868 26.3106H72.8705C73.2312 26.3106 73.5044 26.2451 73.6903 26.1139C73.8761 25.9827 73.9963 25.786 74.051 25.5237C74.1165 25.2614 74.1493 24.928 74.1493 24.5236C74.1493 24.1847 74.122 23.8896 74.0674 23.6382C74.0236 23.3759 73.9089 23.1682 73.7231 23.0152C73.5372 22.8622 73.2476 22.7857 72.8541 22.7857H71.8868V26.3106ZM78.7724 34V20.7199H83.2319C84.0298 20.7199 84.6856 20.8729 85.1994 21.1789C85.7131 21.4741 86.0956 21.9113 86.347 22.4906C86.5984 23.0589 86.7241 23.753 86.7241 24.5728C86.7241 25.6002 86.5547 26.3872 86.2159 26.9337C85.877 27.4692 85.418 27.8409 84.8387 28.0485C84.2594 28.2562 83.609 28.36 82.8876 28.36H81.7072V34H78.7724ZM81.7072 26.3106H82.6909C83.0516 26.3106 83.3248 26.2451 83.5107 26.1139C83.6965 25.9827 83.8167 25.786 83.8714 25.5237C83.9369 25.2614 83.9697 24.928 83.9697 24.5236C83.9697 24.1847 83.9424 23.8896 83.8877 23.6382C83.844 23.3759 83.7293 23.1682 83.5434 23.0152C83.3576 22.8622 83.068 22.7857 82.6745 22.7857H81.7072V26.3106ZM92.3965 34.1967C91.4019 34.1967 90.6149 34.0219 90.0356 33.6721C89.4563 33.3223 89.041 32.8195 88.7896 32.1637C88.5382 31.5079 88.4125 30.7264 88.4125 29.8192V24.8843C88.4125 23.9661 88.5382 23.1846 88.7896 22.5397C89.041 21.8949 89.4563 21.403 90.0356 21.0642C90.6149 20.7144 91.4019 20.5395 92.3965 20.5395C93.4021 20.5395 94.1945 20.7144 94.7738 21.0642C95.3641 21.403 95.7849 21.8949 96.0363 22.5397C96.2877 23.1846 96.4134 23.9661 96.4134 24.8843V29.8192C96.4134 30.7264 96.2877 31.5079 96.0363 32.1637C95.7849 32.8195 95.3641 33.3223 94.7738 33.6721C94.1945 34.0219 93.4021 34.1967 92.3965 34.1967ZM92.3965 32.1146C92.7026 32.1146 92.9266 32.038 93.0687 31.885C93.2108 31.732 93.3037 31.5353 93.3474 31.2948C93.3912 31.0543 93.413 30.8084 93.413 30.557V24.1629C93.413 23.9006 93.3912 23.6546 93.3474 23.4251C93.3037 23.1846 93.2108 22.9879 93.0687 22.8349C92.9266 22.6818 92.7026 22.6053 92.3965 22.6053C92.1123 22.6053 91.8992 22.6818 91.7571 22.8349C91.615 22.9879 91.5221 23.1846 91.4784 23.4251C91.4347 23.6546 91.4128 23.9006 91.4128 24.1629V30.557C91.4128 30.8084 91.4292 31.0543 91.462 31.2948C91.5057 31.5353 91.5932 31.732 91.7243 31.885C91.8664 32.038 92.0905 32.1146 92.3965 32.1146ZM98.6534 34V20.7199H102.31C103.206 20.7199 103.982 20.8182 104.638 21.015C105.293 21.2117 105.802 21.567 106.162 22.0807C106.534 22.5835 106.72 23.2994 106.72 24.2285C106.72 24.775 106.676 25.2614 106.589 25.6876C106.501 26.1139 106.337 26.4855 106.097 26.8025C105.867 27.1085 105.534 27.3654 105.097 27.5731L106.917 34H103.883L102.424 28.0485H101.588V34H98.6534ZM101.588 26.3598H102.408C102.823 26.3598 103.146 26.2888 103.375 26.1467C103.605 25.9937 103.763 25.7805 103.851 25.5073C103.949 25.2231 103.998 24.8843 103.998 24.4908C103.998 23.9224 103.894 23.4797 103.687 23.1628C103.479 22.8458 103.097 22.6873 102.539 22.6873H101.588V26.3598ZM110.007 34V22.9004H108.007V20.7199H114.942V22.9004H112.958V34H110.007Z" fill="#584AFF"/>
<path d="M2.5 1.5H37.5V27.561C37.5 32.4979 33.4979 36.5 28.561 36.5H2.5V28.5V1.5Z" stroke="#584AFF" stroke-width="3"/>
</svg>
